<?xml version="1.0" encoding="UTF-8" standalone="no"?>
<!DOCTYPE svg PUBLIC "-//W3C//DTD SVG 1.1//EN" "http://www.w3.org/Graphics/SVG/1.1/DTD/svg11.dtd">
<!-- Created with Vectornator (http://vectornator.io/) -->
<svg height="100%" stroke-miterlimit="10" style="fill-rule:nonzero;clip-rule:evenodd;stroke-linecap:round;stroke-linejoin:round;" version="1.1" viewBox="0 0 841.995 595.35" width="100%" xml:space="preserve" xmlns="http://www.w3.org/2000/svg" xmlns:xlink="http://www.w3.org/1999/xlink">
<defs/>
<g id="Layer-1">
<path d="M374.818 169.824C374.52 170.121 374.421 170.617 374.52 171.312C374.62 172.007 376.009 173.346 378.688 175.331C381.367 177.315 383.5 179.101 385.088 180.689C386.675 182.276 388.114 184.013 389.404 185.898C390.694 187.783 391.885 190.016 392.976 192.596C394.068 195.176 394.961 198.053 395.655 201.228C396.35 204.404 396.796 207.231 396.995 209.712C397.193 212.193 397.193 214.971 396.995 218.047C396.796 221.123 396.399 223.703 395.804 225.786C395.209 227.87 394.365 229.805 393.274 231.591C392.182 233.377 391.24 234.667 390.446 235.461C389.652 236.255 388.709 236.949 387.618 237.545C386.527 238.14 385.137 238.487 383.451 238.587C381.764 238.686 380.424 238.487 379.432 237.991C378.44 237.495 377.497 236.751 376.604 235.759C375.711 234.766 374.768 233.228 373.776 231.145C372.784 229.061 372.04 227.126 371.544 225.34C371.047 223.554 370.899 222.165 371.097 221.173C371.296 220.18 371.345 217.848 371.246 214.177C371.147 210.506 370.948 208.373 370.651 207.777C370.353 207.182 369.807 206.835 369.013 206.735C368.22 206.636 367.624 206.785 367.227 207.182C366.83 207.579 366.533 208.224 366.334 209.117C366.136 210.01 366.037 211.895 366.037 214.773C366.037 217.65 366.185 220.18 366.483 222.363C366.781 224.546 366.285 226.779 364.995 229.061C363.705 231.343 362.117 233.278 360.232 234.866C358.347 236.453 356.362 237.594 354.278 238.289C352.195 238.983 350.161 239.231 348.176 239.033C346.192 238.835 344.802 238.537 344.009 238.14C343.215 237.743 342.371 237.098 341.478 236.205C340.585 235.312 339.742 233.774 338.948 231.591C338.154 229.408 337.807 226.977 337.906 224.298C338.006 221.619 338.303 219.287 338.799 217.303C339.295 215.318 340.188 212.689 341.478 209.414C342.768 206.14 344.207 202.965 345.795 199.889C347.382 196.813 350.012 192.794 353.683 187.833C357.354 182.872 359.14 180.093 359.041 179.498C358.942 178.903 358.545 178.506 357.851 178.307C357.156 178.109 353.237 179.696 346.092 183.07C338.948 186.444 334.979 188.379 334.185 188.875C333.392 189.371 332.548 190.115 331.655 191.107C330.762 192.1 330.415 192.695 330.613 192.893C330.812 193.092 331.407 192.993 332.399 192.596C333.392 192.199 337.162 190.413 343.711 187.238C346.985 185.65 350.26 184.062 353.534 182.475C352.344 184.062 351.153 185.65 349.962 187.238C347.581 190.413 345.398 193.836 343.413 197.507C341.429 201.179 339.792 204.552 338.502 207.628C337.212 210.704 336.17 213.83 335.376 217.005C334.582 220.18 334.185 222.959 334.185 225.34C334.185 227.721 334.384 229.656 334.781 231.145C335.178 232.633 335.872 234.171 336.864 235.759C337.857 237.346 339.246 238.735 341.032 239.926C342.818 241.117 344.902 241.861 347.283 242.159C349.664 242.456 351.699 242.407 353.385 242.01C355.072 241.613 356.511 241.117 357.702 240.521C358.892 239.926 360.182 239.083 361.571 237.991C362.961 236.9 364.449 235.262 366.037 233.08C366.83 231.988 367.624 230.897 368.418 229.805C368.864 230.847 369.311 231.889 369.758 232.931C370.651 235.014 371.891 236.949 373.478 238.735C375.066 240.521 376.604 241.762 378.092 242.456C379.581 243.151 381.268 243.498 383.153 243.498C385.038 243.498 387.172 242.903 389.553 241.712C391.934 240.521 393.919 239.033 395.506 237.247C397.094 235.461 398.235 233.923 398.93 232.633C399.624 231.343 400.418 229.061 401.311 225.786C402.204 222.512 402.7 218.841 402.799 214.773C402.899 210.704 402.75 207.231 402.353 204.354C401.956 201.476 401.311 198.549 400.418 195.572C399.525 192.596 398.285 189.669 396.697 186.791C395.11 183.914 393.323 181.383 391.339 179.2C389.354 177.017 387.221 175.083 384.939 173.396C382.657 171.709 380.92 170.617 379.73 170.121C378.539 169.625 377.497 169.377 376.604 169.377C375.711 169.377 375.116 169.526 374.818 169.824ZM438.52 189.47C438.421 189.966 439.562 191.256 441.944 193.34C444.325 195.424 446.409 197.507 448.195 199.591C449.981 201.675 452.065 205.048 454.446 209.712C456.827 214.376 458.365 217.154 459.06 218.047C459.755 218.94 460.499 219.436 461.293 219.535C462.086 219.635 462.682 219.436 463.079 218.94C463.476 218.444 463.674 217.898 463.674 217.303C463.674 216.707 462.831 213.879 461.144 208.819C459.457 203.759 458.564 200.434 458.465 198.847C458.365 197.259 458.415 196.118 458.614 195.424C458.713 195.076 458.812 194.729 458.911 194.382C460.35 197.21 461.789 200.038 463.227 202.866C466.105 208.521 467.841 211.647 468.437 212.242C469.032 212.838 469.826 213.383 470.818 213.879C471.81 214.376 472.753 214.624 473.646 214.624C474.539 214.624 475.234 214.425 475.73 214.028C476.226 213.631 476.375 213.135 476.176 212.54C475.978 211.945 475.234 211.448 473.944 211.052C472.654 210.655 471.513 209.91 470.521 208.819C469.528 207.728 468.089 205.197 466.204 201.228C464.319 197.259 462.88 194.58 461.888 193.191C460.896 191.802 460.102 191.058 459.507 190.959C458.911 190.859 458.316 191.008 457.72 191.405C457.125 191.802 456.629 192.497 456.232 193.489C455.835 194.481 455.538 195.771 455.339 197.359C455.24 198.152 455.141 198.946 455.041 199.74C454.793 199.343 454.545 198.946 454.297 198.549C453.801 197.755 452.759 196.664 451.172 195.275C449.584 193.886 447.55 192.496 445.069 191.107C442.589 189.718 440.902 188.974 440.009 188.875C439.116 188.776 438.62 188.974 438.52 189.47ZM430.334 200.186C429.144 201.278 427.606 202.369 425.72 203.461C423.835 204.552 421.801 205.396 419.618 205.991C417.435 206.586 415.203 206.884 412.92 206.884C410.638 206.884 409.299 207.083 408.902 207.479C408.505 207.876 408.455 208.373 408.753 208.968C409.051 209.563 409.745 210.109 410.837 210.605C411.928 211.101 413.317 211.399 415.004 211.498C416.691 211.597 418.328 211.498 419.916 211.2C420.71 211.052 421.503 210.903 422.297 210.754C422.297 211.597 422.297 212.441 422.297 213.284C422.297 214.971 422.496 216.856 422.893 218.94C423.289 221.024 423.686 222.661 424.083 223.852C424.48 225.042 424.976 226.035 425.572 226.828C426.167 227.622 426.862 227.92 427.655 227.721C428.449 227.523 428.846 227.076 428.846 226.382C428.846 225.687 428.003 222.859 426.316 217.898C424.629 212.937 424.778 210.01 426.762 209.117C428.747 208.224 430.434 207.182 431.823 205.991C433.212 204.8 434.105 203.808 434.502 203.014C434.899 202.221 435.097 201.526 435.097 200.931C435.097 200.335 434.899 199.79 434.502 199.293C434.105 198.797 433.609 198.549 433.013 198.549C432.418 198.549 431.525 199.095 430.334 200.186ZM436.586 203.461C435.196 204.155 434.105 204.949 433.311 205.842C432.517 206.735 431.773 207.827 431.079 209.117C430.384 210.407 429.937 211.895 429.739 213.582C429.541 215.269 429.739 216.807 430.334 218.196C430.93 219.585 431.972 220.776 433.46 221.768C434.948 222.76 436.883 223.355 439.265 223.554C441.646 223.752 443.779 223.604 445.665 223.107C447.55 222.611 449.286 221.917 450.874 221.024C452.462 220.131 453.652 219.238 454.446 218.345C455.24 217.452 455.587 216.608 455.488 215.814C455.389 215.021 455.041 214.624 454.446 214.624C453.851 214.624 453.007 215.021 451.916 215.814C450.824 216.608 449.187 217.452 447.004 218.345C444.821 219.238 442.837 219.684 441.051 219.684C439.265 219.684 437.776 219.337 436.586 218.642C435.395 217.948 434.7 216.856 434.502 215.368C434.303 213.879 434.353 212.738 434.651 211.945C434.948 211.151 435.544 210.258 436.437 209.266C437.33 208.273 438.322 207.678 439.413 207.479C440.505 207.281 441.596 207.579 442.688 208.373C443.779 209.166 444.672 209.563 445.367 209.563C446.062 209.563 446.607 209.365 447.004 208.968C447.401 208.571 447.6 208.124 447.6 207.628C447.6 207.132 447.252 206.438 446.558 205.545C445.863 204.652 445.02 203.957 444.027 203.461C443.035 202.965 441.894 202.667 440.604 202.568C439.314 202.469 437.975 202.766 436.586 203.461ZM409.944 213.433C408.852 214.425 407.81 215.963 406.818 218.047C405.826 220.131 405.181 221.867 404.883 223.256C404.585 224.645 404.536 226.878 404.734 229.954C404.933 233.03 405.181 234.766 405.479 235.163C405.776 235.56 406.173 235.659 406.669 235.461C407.165 235.262 407.463 234.072 407.562 231.889C407.661 229.706 408.257 228.614 409.348 228.614C410.44 228.614 411.432 228.466 412.325 228.168C413.218 227.87 414.21 228.763 415.302 230.847C416.393 232.931 417.137 234.121 417.534 234.419C417.931 234.717 418.527 234.866 419.32 234.866C420.114 234.866 420.759 234.568 421.255 233.973C421.751 233.377 421.999 232.583 421.999 231.591C421.999 230.599 421.255 227.672 419.767 222.81C418.279 217.948 417.137 214.971 416.344 213.879C415.55 212.788 414.558 212.193 413.367 212.093C412.176 211.994 411.035 212.441 409.944 213.433ZM411.581 219.386C411.779 219.386 411.978 220.131 412.176 221.619C412.375 223.107 411.829 224.05 410.539 224.447C409.894 224.645 409.249 224.844 408.604 225.042C409.051 224.1 409.497 223.157 409.944 222.214C410.837 220.329 411.382 219.386 411.581 219.386ZM518.149 227.275C516.958 227.573 515.519 228.168 513.832 229.061C512.145 229.954 509.566 231.74 506.093 234.419C502.62 237.098 500.735 238.289 500.437 237.991C500.139 237.693 499.941 236.999 499.841 235.907C499.742 234.816 499.494 234.121 499.097 233.824C498.7 233.526 498.055 233.427 497.162 233.526C496.269 233.625 495.178 234.171 493.888 235.163C492.598 236.156 491.705 237.247 491.209 238.438C490.713 239.628 490.514 240.521 490.614 241.117C490.713 241.712 491.06 242.307 491.655 242.903C492.251 243.498 492.995 243.796 493.888 243.796C494.335 243.796 494.781 243.796 495.228 243.796C494.186 244.937 493.144 246.078 492.102 247.219C490.018 249.501 488.232 251.932 486.744 254.512C485.255 257.092 484.362 259.473 484.065 261.656C483.767 263.839 483.767 265.377 484.065 266.27C484.362 267.163 484.759 267.908 485.255 268.503C485.752 269.098 486.347 269.545 487.041 269.842C487.736 270.14 488.778 270.239 490.167 270.14C491.556 270.041 492.797 269.694 493.888 269.098C494.979 268.503 495.972 267.759 496.865 266.866C497.758 265.973 498.651 264.732 499.544 263.145C500.437 261.557 501.082 260.118 501.479 258.828C501.876 257.538 502.074 254.76 502.074 250.494C502.074 246.227 503.662 242.804 506.837 240.224C510.012 237.644 512.939 235.461 515.618 233.675C518.297 231.889 520.083 230.45 520.976 229.359C521.869 228.267 522.266 227.573 522.167 227.275C522.068 226.977 521.671 226.828 520.976 226.828C520.282 226.828 519.339 226.977 518.149 227.275ZM465.014 234.121C464.517 234.618 464.17 235.262 463.972 236.056C463.773 236.85 463.773 237.445 463.972 237.842C464.17 238.239 464.716 238.537 465.609 238.735C466.502 238.934 467.296 238.835 467.99 238.438C468.685 238.041 469.032 237.545 469.032 236.949C469.032 236.354 468.883 235.957 468.586 235.759C468.288 235.56 467.941 235.511 467.544 235.61C467.345 235.659 467.147 235.709 466.948 235.759C466.998 235.411 467.048 235.064 467.097 234.717C467.196 234.022 466.998 233.625 466.502 233.526C466.006 233.427 465.51 233.625 465.014 234.121ZM479.302 236.949C478.21 237.942 477.417 238.934 476.921 239.926C476.672 240.422 476.424 240.918 476.176 241.414C475.978 241.117 475.779 240.819 475.581 240.521C475.383 240.224 475.184 239.926 474.986 239.628C474.787 239.777 474.589 239.926 474.39 240.075C473.993 240.373 473.547 242.208 473.051 245.582C472.555 248.956 472.307 250.99 472.307 251.684C472.307 252.379 472.455 252.925 472.753 253.321C473.051 253.718 473.398 253.917 473.795 253.917C474.192 253.917 474.539 253.768 474.837 253.47C475.134 253.173 475.383 252.081 475.581 250.196C475.779 248.311 476.325 246.425 477.218 244.54C478.111 242.655 478.855 241.414 479.451 240.819C479.748 240.521 480.046 240.224 480.344 239.926C480.393 240.819 480.443 241.712 480.493 242.605C480.592 244.391 480.939 245.83 481.534 246.921C482.13 248.013 482.725 248.707 483.321 249.005C483.916 249.303 484.561 249.452 485.255 249.452C485.95 249.452 486.744 249.055 487.637 248.261C488.53 247.467 488.927 246.673 488.828 245.88C488.728 245.086 488.431 244.689 487.934 244.689C487.438 244.689 486.992 244.838 486.595 245.135C486.198 245.433 485.801 245.483 485.404 245.284C485.007 245.086 484.71 243.647 484.511 240.968C484.313 238.289 484.015 236.701 483.618 236.205C483.221 235.709 482.676 235.461 481.981 235.461C481.286 235.461 480.393 235.957 479.302 236.949ZM448.046 240.819C447.947 242.407 448.046 244.292 448.344 246.475C448.641 248.658 449.038 251.039 449.534 253.619C450.031 256.199 450.427 257.638 450.725 257.935C451.023 258.233 451.519 258.382 452.213 258.382C452.908 258.382 453.404 258.183 453.702 257.787C454 257.39 454.049 255.901 453.851 253.321C453.751 252.032 453.652 250.742 453.553 249.452C454.099 250.245 454.645 251.039 455.19 251.833C456.282 253.421 457.522 254.512 458.911 255.107C460.3 255.703 461.739 255.901 463.227 255.703C464.716 255.504 465.807 255.157 466.502 254.661C467.196 254.165 467.643 253.669 467.841 253.173C468.04 252.676 468.586 252.329 469.479 252.131C470.372 251.932 470.868 251.585 470.967 251.089C471.066 250.593 470.769 250.097 470.074 249.6C469.379 249.104 468.883 248.459 468.586 247.666C468.288 246.872 468.089 245.731 467.99 244.242C467.891 242.754 467.643 242.01 467.246 242.01C466.849 242.01 466.502 242.258 466.204 242.754C465.907 243.25 465.857 244.689 466.055 247.07C466.155 248.261 466.254 249.452 466.353 250.642C465.51 250.692 464.666 250.742 463.823 250.791C462.136 250.89 461.045 250.841 460.548 250.642C460.052 250.444 459.11 249.501 457.72 247.814C456.331 246.128 455.24 245.235 454.446 245.135C453.652 245.036 453.007 245.086 452.511 245.284C452.263 245.383 452.015 245.483 451.767 245.582C451.519 244.639 451.271 243.697 451.023 242.754C450.527 240.869 450.08 239.678 449.683 239.182C449.286 238.686 448.939 238.438 448.641 238.438C448.344 238.438 448.145 239.231 448.046 240.819ZM439.562 244.838C439.562 246.525 439.265 247.616 438.669 248.112C438.074 248.608 437.727 249.154 437.627 249.749C437.528 250.345 437.727 250.692 438.223 250.791C438.719 250.89 439.215 250.791 439.711 250.494C439.959 250.345 440.207 250.196 440.455 250.047C440.852 251.337 441.249 252.627 441.646 253.917C442.44 256.497 443.035 257.985 443.432 258.382C443.829 258.779 444.325 258.977 444.92 258.977C445.516 258.977 445.962 258.63 446.26 257.935C446.558 257.241 446.161 255.504 445.069 252.726C443.978 249.948 443.432 248.41 443.432 248.112C443.432 247.814 443.829 247.418 444.623 246.921C445.417 246.425 445.813 245.979 445.813 245.582C445.813 245.185 445.466 244.937 444.772 244.838C444.077 244.738 443.482 244.838 442.986 245.135C442.738 245.284 442.489 245.433 442.241 245.582C442.043 245.135 441.844 244.689 441.646 244.242C441.249 243.349 440.803 242.804 440.306 242.605C440.058 242.506 439.81 242.407 439.562 242.307C439.562 243.151 439.562 243.994 439.562 244.838ZM430.93 248.261C428.747 249.253 427.953 251.188 428.548 254.066C429.144 256.943 429.689 258.68 430.186 259.275C430.682 259.87 431.376 260.317 432.269 260.614C433.162 260.912 434.105 260.912 435.097 260.614C436.089 260.317 436.784 259.92 437.181 259.424C437.578 258.928 437.776 258.432 437.776 257.935C437.776 257.439 437.627 257.042 437.33 256.745C437.032 256.447 436.337 256.348 435.246 256.447C434.155 256.546 433.46 256.447 433.162 256.149C432.865 255.852 432.716 255.604 432.716 255.405C432.716 255.207 433.212 254.859 434.204 254.363C435.196 253.867 435.742 253.371 435.841 252.875C435.941 252.379 435.593 252.032 434.8 251.833C434.006 251.635 433.212 251.684 432.418 251.982C432.021 252.131 431.624 252.28 431.227 252.428C431.178 252.28 431.128 252.131 431.079 251.982C430.979 251.684 430.93 251.436 430.93 251.238C430.93 251.039 431.872 250.543 433.758 249.749C435.643 248.956 436.586 248.261 436.586 247.666C436.586 247.368 436.586 247.07 436.586 246.773C436.189 246.773 435.792 246.773 435.395 246.773C434.601 246.773 433.113 247.269 430.93 248.261ZM495.823 250.345C495.773 251.387 495.724 252.428 495.674 253.47C495.575 255.554 495.178 257.538 494.483 259.424C493.789 261.309 492.945 262.797 491.953 263.889C490.961 264.98 490.068 265.576 489.274 265.675C488.877 265.725 488.48 265.774 488.083 265.824C488.034 265.278 487.984 264.732 487.934 264.187C487.835 263.095 488.083 261.805 488.679 260.317C489.274 258.828 490.614 256.794 492.697 254.214C493.739 252.925 494.781 251.635 495.823 250.345ZM417.534 251.387C417.137 251.684 416.741 252.776 416.344 254.661C416.145 255.604 415.947 256.546 415.748 257.489C415.252 257.142 414.756 256.794 414.26 256.447C413.268 255.752 412.424 255.504 411.73 255.703C411.035 255.901 410.787 257.29 410.986 259.87C411.184 262.45 411.432 264.087 411.73 264.782C412.027 265.476 412.375 265.824 412.772 265.824C413.168 265.824 413.466 265.675 413.665 265.377C413.863 265.08 413.913 264.286 413.813 262.996C413.764 262.351 413.714 261.706 413.665 261.061C414.21 261.16 414.756 261.259 415.302 261.359C416.393 261.557 417.237 261.408 417.832 260.912C418.427 260.416 418.775 259.969 418.874 259.573C418.924 259.374 418.973 259.176 419.023 258.977C419.519 259.573 420.015 260.168 420.511 260.763C421.503 261.954 422.297 262.698 422.893 262.996C423.488 263.294 424.182 263.442 424.976 263.442C425.77 263.442 426.365 263.244 426.762 262.847C427.159 262.45 427.308 261.904 427.209 261.21C427.11 260.515 426.465 259.672 425.274 258.68C424.083 257.687 422.942 256.249 421.851 254.363C420.759 252.478 419.866 251.436 419.172 251.238C418.477 251.039 417.931 251.089 417.534 251.387ZM378.39 253.173C377.1 253.669 376.058 254.314 375.265 255.107C374.471 255.901 373.925 256.695 373.627 257.489C373.33 258.283 373.28 259.176 373.478 260.168C373.677 261.16 374.223 261.904 375.116 262.401C376.009 262.897 378.44 263.194 382.409 263.294C386.378 263.393 388.759 263.591 389.553 263.889C390.347 264.187 390.892 264.583 391.19 265.08C391.488 265.576 391.488 266.022 391.19 266.419C390.892 266.816 390.247 267.213 389.255 267.61C388.263 268.007 385.584 268.106 381.218 267.908C376.852 267.709 374.52 267.709 374.223 267.908C373.925 268.106 373.776 268.404 373.776 268.801C373.776 269.197 374.024 269.594 374.52 269.991C375.016 270.388 376.356 270.835 378.539 271.331C380.722 271.827 382.855 272.075 384.939 272.075C387.023 272.075 388.958 271.728 390.744 271.033C392.53 270.339 393.671 269.694 394.167 269.098C394.663 268.503 395.01 267.858 395.209 267.163C395.308 266.816 395.407 266.469 395.506 266.121C395.953 266.518 396.399 266.915 396.846 267.312C397.739 268.106 399.227 268.552 401.311 268.652C403.395 268.751 405.032 268.552 406.223 268.056C407.413 267.56 408.207 267.014 408.604 266.419C409.001 265.824 409.199 265.129 409.199 264.335C409.199 263.542 409.051 262.897 408.753 262.401C408.455 261.904 407.86 261.309 406.967 260.614C406.074 259.92 404.982 259.325 403.692 258.828C402.403 258.332 401.113 258.084 399.823 258.084C398.533 258.084 397.739 258.233 397.441 258.531C397.144 258.828 397.044 259.325 397.144 260.019C397.243 260.714 397.044 261.309 396.548 261.805C396.052 262.301 395.754 262.847 395.655 263.442C395.606 263.74 395.556 264.038 395.506 264.335C395.159 263.939 394.812 263.542 394.465 263.145C393.77 262.351 392.728 261.656 391.339 261.061C389.95 260.466 388.461 260.069 386.874 259.87C385.286 259.672 383.153 259.622 380.474 259.721C379.134 259.771 377.795 259.821 376.455 259.87C376.604 259.374 376.753 258.878 376.902 258.382C377.199 257.39 377.745 256.645 378.539 256.149C379.333 255.653 380.077 255.306 380.771 255.107C381.466 254.909 382.806 254.859 384.79 254.959C385.782 255.008 386.775 255.058 387.767 255.107C387.767 254.909 387.767 254.711 387.767 254.512C387.767 254.115 387.469 253.718 386.874 253.321C386.278 252.925 385.038 252.676 383.153 252.577C381.268 252.478 379.68 252.676 378.39 253.173ZM402.651 262.698C403.841 262.996 404.585 263.343 404.883 263.74C405.032 263.939 405.181 264.137 405.33 264.335C404.387 264.335 403.444 264.335 402.502 264.335C401.559 264.335 400.616 264.335 399.674 264.335C399.723 264.038 399.773 263.74 399.823 263.442C399.922 262.847 400.12 262.5 400.418 262.401C400.716 262.301 401.46 262.401 402.651 262.698ZM449.832 278.921C448.542 279.318 447.203 279.914 445.813 280.708C444.424 281.501 442.738 282.99 440.753 285.173C438.769 287.356 437.28 289.687 436.288 292.168C435.296 294.649 434.75 296.832 434.651 298.717C434.551 300.602 434.601 301.991 434.8 302.884C434.998 303.777 435.395 304.67 435.99 305.563C436.586 306.456 437.33 307.101 438.223 307.498C439.116 307.895 440.058 308.094 441.051 308.094C442.043 308.094 443.581 307.846 445.665 307.349C446.707 307.101 447.748 306.853 448.79 306.605C448.84 306.953 448.889 307.3 448.939 307.647C449.038 308.342 449.386 308.739 449.981 308.838C450.576 308.937 451.023 308.491 451.32 307.498C451.618 306.506 451.916 305.911 452.213 305.712C452.511 305.514 454 305.166 456.679 304.67C459.358 304.174 461.541 303.926 463.227 303.926C464.914 303.926 465.907 303.976 466.204 304.075C466.502 304.174 466.651 305.464 466.651 307.945C466.651 309.185 466.651 310.425 466.651 311.666C465.956 311.17 465.262 310.673 464.567 310.177C463.178 309.185 462.086 308.788 461.293 308.987C460.499 309.185 460.102 309.532 460.102 310.029C460.102 310.525 460.697 311.467 461.888 312.856C463.079 314.246 462.186 316.28 459.209 318.959C456.232 321.638 453.404 324.416 450.725 327.294C448.046 330.171 446.359 332.305 445.665 333.694C444.97 335.083 444.672 336.274 444.772 337.266C444.871 338.258 445.119 338.953 445.516 339.35C445.913 339.746 446.756 340.044 448.046 340.243C449.336 340.441 450.676 340.243 452.065 339.647C453.454 339.052 454.099 338.605 454 338.308C453.9 338.01 452.908 337.812 451.023 337.712C449.138 337.613 448.145 337.415 448.046 337.117C447.947 336.819 448.046 336.323 448.344 335.629C448.641 334.934 449.336 333.892 450.427 332.503C451.519 331.114 454.248 328.236 458.614 323.87C462.979 319.505 465.311 317.371 465.609 317.47C465.907 317.57 466.7 318.611 467.99 320.596C469.28 322.58 470.223 324.218 470.818 325.508C471.414 326.798 471.81 327.988 472.009 329.08C472.207 330.171 472.604 330.816 473.2 331.015C473.795 331.213 474.341 331.163 474.837 330.866C475.333 330.568 475.581 329.477 475.581 327.591C475.581 325.706 475.134 323.821 474.241 321.936C473.348 320.05 472.307 318.363 471.116 316.875C469.925 315.387 469.379 314.196 469.479 313.303C469.578 312.41 469.975 311.368 470.669 310.177C471.364 308.987 471.711 307.846 471.711 306.754C471.711 305.663 471.562 304.72 471.265 303.926C470.967 303.132 471.314 301.594 472.307 299.312C472.803 298.171 473.299 297.03 473.795 295.889C474.043 296.435 474.291 296.98 474.539 297.526C475.035 298.618 475.581 300.9 476.176 304.373C476.772 307.846 477.268 309.83 477.665 310.326C478.062 310.822 478.607 311.07 479.302 311.07C479.996 311.07 480.493 310.872 480.79 310.475C481.088 310.078 481.237 308.788 481.237 306.605C481.237 304.422 481.386 302.587 481.683 301.098C481.981 299.61 482.477 298.022 483.172 296.335C483.866 294.649 484.61 293.408 485.404 292.615C485.801 292.218 486.198 291.821 486.595 291.424C486.942 293.607 487.29 295.79 487.637 297.973C488.331 302.339 489.125 305.762 490.018 308.242C490.911 310.723 492.052 312.807 493.441 314.494C494.831 316.18 495.823 317.173 496.418 317.47C497.014 317.768 497.807 317.917 498.8 317.917C499.792 317.917 500.486 317.768 500.883 317.47C501.28 317.173 501.528 316.825 501.628 316.429C501.727 316.032 501.231 315.684 500.139 315.387C499.048 315.089 498.105 314.543 497.311 313.749C496.517 312.956 495.823 312.013 495.228 310.922C494.632 309.83 493.938 307.895 493.144 305.117C492.35 302.339 491.705 299.362 491.209 296.187C490.713 293.011 490.266 290.928 489.869 289.935C489.472 288.943 489.026 288.249 488.53 287.852C488.034 287.455 487.389 287.256 486.595 287.256C485.801 287.256 485.007 287.554 484.214 288.149C483.42 288.745 482.725 289.439 482.13 290.233C481.534 291.027 480.939 292.218 480.344 293.805C480.046 294.599 479.748 295.393 479.451 296.187C479.153 295.542 478.855 294.897 478.558 294.252C477.962 292.962 477.367 292.019 476.772 291.424C476.176 290.828 475.432 290.481 474.539 290.382C473.646 290.283 472.703 290.68 471.711 291.573C470.719 292.466 469.925 293.508 469.33 294.698C468.734 295.889 468.189 297.377 467.693 299.163C467.196 300.949 465.857 301.842 463.674 301.842C461.491 301.842 459.209 302.091 456.827 302.587C455.637 302.835 454.446 303.083 453.255 303.331C454.297 300.949 455.339 298.568 456.381 296.187C458.465 291.424 459.606 287.951 459.804 285.768C460.003 283.585 459.903 282.097 459.507 281.303C459.11 280.509 458.663 279.914 458.167 279.517C457.671 279.12 456.48 278.822 454.595 278.624C452.71 278.425 451.122 278.525 449.832 278.921ZM454.744 281.749C455.934 282.047 456.629 282.841 456.827 284.131C457.026 285.421 456.827 287.108 456.232 289.191C455.637 291.275 454.595 293.954 453.107 297.228C451.618 300.503 450.775 302.14 450.576 302.14C450.378 302.14 449.931 300.751 449.237 297.973C448.542 295.194 448.046 293.756 447.748 293.656C447.6 293.607 447.451 293.557 447.302 293.508C447.252 293.904 447.203 294.301 447.153 294.698C447.054 295.492 447.252 297.377 447.748 300.354C448.244 303.331 447.5 305.067 445.516 305.563C443.531 306.06 442.142 306.308 441.348 306.308C440.555 306.308 439.81 306.159 439.116 305.861C438.421 305.563 437.875 305.018 437.479 304.224C437.082 303.43 436.883 302.19 436.883 300.503C436.883 298.816 437.032 297.377 437.33 296.187C437.627 294.996 438.124 293.706 438.818 292.317C439.513 290.928 440.654 289.34 442.241 287.554C443.829 285.768 445.169 284.528 446.26 283.833C447.351 283.139 448.741 282.543 450.427 282.047C452.114 281.551 453.553 281.452 454.744 281.749ZM508.474 285.024C506.589 286.314 504.455 288.249 502.074 290.828C499.693 293.408 498.403 294.996 498.204 295.591C498.006 296.187 498.105 297.427 498.502 299.312C498.899 301.197 499.494 303.083 500.288 304.968C501.082 306.853 501.876 308.242 502.669 309.135C503.463 310.029 504.307 310.673 505.2 311.07C506.093 311.467 507.135 311.567 508.325 311.368C509.516 311.17 510.459 310.624 511.153 309.731C511.848 308.838 512.195 307.895 512.195 306.903C512.195 305.911 512.046 305.216 511.748 304.819C511.451 304.422 510.905 304.273 510.111 304.373C509.317 304.472 508.772 304.869 508.474 305.563C508.176 306.258 507.879 306.605 507.581 306.605C507.283 306.605 506.688 306.159 505.795 305.266C505.348 304.819 504.902 304.373 504.455 303.926C505.299 303.083 506.142 302.239 506.986 301.396C508.673 299.709 509.665 298.419 509.962 297.526C510.111 297.08 510.26 296.633 510.409 296.187C510.012 296.187 509.615 296.187 509.218 296.187C508.424 296.187 507.184 297.03 505.497 298.717C504.654 299.56 503.81 300.404 502.967 301.247C502.719 300.85 502.471 300.453 502.223 300.056C501.727 299.263 501.479 298.667 501.479 298.27C501.479 297.873 503.414 295.839 507.283 292.168C511.153 288.497 513.237 286.413 513.535 285.917C513.832 285.421 513.981 284.875 513.981 284.28C513.981 283.684 513.535 283.337 512.642 283.238C511.748 283.139 510.359 283.734 508.474 285.024ZM376.158 292.317C375.165 293.508 374.173 295.095 373.181 297.08C372.189 299.064 370.799 302.339 369.013 306.903C367.227 311.467 365.54 316.577 363.953 322.233C362.365 327.889 361.224 332.652 360.53 336.522C359.835 340.391 357.95 343.418 354.874 345.601C351.798 347.784 349.168 349.967 346.985 352.15C344.802 354.332 343.81 355.672 344.009 356.168C344.207 356.664 344.554 356.912 345.05 356.912C345.547 356.912 346.092 356.565 346.688 355.87C347.283 355.176 349.416 353.688 353.088 351.405C354.923 350.264 356.759 349.123 358.595 347.982C358.396 350.413 358.198 352.844 357.999 355.275C357.602 360.137 357.553 365.892 357.851 372.54C358.148 379.188 358.396 382.512 358.595 382.512C358.694 382.512 358.793 382.512 358.892 382.512C358.942 379.188 358.992 375.864 359.041 372.54C359.14 365.892 359.537 359.889 360.232 354.531C360.926 349.173 363.457 345.154 367.823 342.475C372.189 339.796 374.471 338.456 374.669 338.456C374.868 338.456 375.016 339.399 375.116 341.284C375.215 343.17 375.562 345.601 376.158 348.577C376.753 351.554 377.299 353.787 377.795 355.275C378.291 356.763 379.333 358.847 380.92 361.526C382.508 364.205 384.244 366.388 386.13 368.075C388.015 369.762 389.851 370.953 391.637 371.647C393.423 372.342 395.258 372.639 397.144 372.54C399.029 372.441 400.418 372.143 401.311 371.647C402.204 371.151 402.899 370.605 403.395 370.01C403.891 369.415 404.139 368.968 404.139 368.67C404.139 368.522 404.139 368.373 404.139 368.224C402.7 368.323 401.261 368.422 399.823 368.522C396.945 368.72 394.812 368.522 393.423 367.926C392.034 367.331 390.297 365.942 388.213 363.759C386.13 361.576 384.641 359.542 383.748 357.657C382.855 355.771 381.962 353.043 381.069 349.47C380.176 345.898 379.581 342.723 379.283 339.945C378.985 337.167 381.367 334.289 386.427 331.312C391.488 328.336 394.564 326.351 395.655 325.359C396.747 324.367 397.441 323.523 397.739 322.829C397.888 322.481 398.037 322.134 398.185 321.787C397.64 321.737 397.094 321.687 396.548 321.638C395.457 321.539 394.564 321.588 393.869 321.787C393.175 321.985 390.644 323.325 386.278 325.805C381.913 328.286 379.482 329.526 378.985 329.526C378.737 329.526 378.489 329.526 378.241 329.526C378.291 326.401 378.34 323.275 378.39 320.149C378.489 313.898 378.886 307.647 379.581 301.396C380.275 295.145 380.424 291.771 380.027 291.275C379.63 290.779 379.134 290.531 378.539 290.531C377.944 290.531 377.15 291.126 376.158 292.317ZM376.753 297.08C376.802 297.427 376.852 297.774 376.902 298.122C377.001 298.816 376.654 301.991 375.86 307.647C375.066 313.303 374.62 318.86 374.52 324.317C374.421 329.774 372.387 333.743 368.418 336.224C366.433 337.464 364.449 338.705 362.464 339.945C363.06 337.415 363.655 334.884 364.251 332.354C365.441 327.294 366.632 322.928 367.823 319.256C369.013 315.585 370.799 310.971 373.181 305.415C374.371 302.636 375.562 299.858 376.753 297.08ZM459.06 324.466C458.365 324.863 457.82 325.359 457.423 325.954C457.026 326.549 456.877 327.393 456.976 328.484C457.076 329.576 457.522 330.37 458.316 330.866C459.11 331.362 459.953 331.511 460.846 331.312C461.739 331.114 462.533 330.518 463.227 329.526C463.922 328.534 464.22 327.591 464.12 326.698C464.021 325.805 463.674 325.111 463.079 324.615C462.483 324.118 461.838 323.87 461.144 323.87C460.449 323.87 459.755 324.069 459.06 324.466ZM430.483 329.675C428.796 330.568 427.556 331.411 426.762 332.205C425.968 332.999 425.274 333.942 424.679 335.033C424.083 336.125 423.835 337.167 423.934 338.159C424.034 339.151 424.43 339.796 425.125 340.094C425.472 340.243 425.82 340.391 426.167 340.54C425.919 341.136 425.671 341.731 425.423 342.326C424.927 343.517 424.679 344.559 424.679 345.452C424.679 346.345 425.125 347.238 426.018 348.131C426.911 349.024 427.755 349.47 428.548 349.47C429.342 349.47 430.533 349.173 432.12 348.577C433.708 347.982 435.246 347.188 436.734 346.196C438.223 345.204 439.364 344.212 440.158 343.219C440.951 342.227 441.348 341.483 441.348 340.987C441.348 340.491 441.051 340.143 440.455 339.945C439.86 339.746 438.322 340.342 435.841 341.731C433.361 343.12 431.624 343.963 430.632 344.261C430.136 344.41 429.64 344.559 429.144 344.708C429.243 344.36 429.342 344.013 429.441 343.666C429.64 342.971 430.533 341.582 432.12 339.498C433.708 337.415 434.452 336.125 434.353 335.629C434.254 335.132 434.006 334.736 433.609 334.438C433.212 334.14 432.765 333.991 432.269 333.991C431.773 333.991 431.079 334.239 430.186 334.736C429.739 334.984 429.293 335.232 428.846 335.48C429.193 335.083 429.541 334.686 429.888 334.289C430.582 333.495 431.724 332.652 433.311 331.759C434.899 330.866 435.693 330.221 435.693 329.824C435.693 329.427 435.544 329.08 435.246 328.782C434.948 328.484 434.502 328.336 433.906 328.336C433.311 328.336 432.17 328.782 430.483 329.675ZM412.772 338.605C412.375 339.3 412.672 340.54 413.665 342.326C414.657 344.112 415.252 346.047 415.451 348.131C415.649 350.215 415.599 351.505 415.302 352.001C415.004 352.497 414.657 352.745 414.26 352.745C413.863 352.745 413.168 352.447 412.176 351.852C411.184 351.257 410.341 350.562 409.646 349.768C408.951 348.974 408.207 348.577 407.413 348.577C406.62 348.577 406.173 349.024 406.074 349.917C405.975 350.81 406.123 352.1 406.52 353.787C406.917 355.474 407.066 356.962 406.967 358.252C406.917 358.897 406.868 359.542 406.818 360.187C406.421 359.889 406.024 359.591 405.627 359.294C404.834 358.698 404.189 358.004 403.692 357.21C403.196 356.416 402.403 354.332 401.311 350.959C400.22 347.585 399.426 345.849 398.93 345.75C398.434 345.65 398.086 345.75 397.888 346.047C397.689 346.345 397.59 347.089 397.59 348.28C397.59 349.47 397.838 351.008 398.334 352.894C398.83 354.779 399.674 356.714 400.865 358.698C402.055 360.683 403.196 362.022 404.288 362.717C405.379 363.412 406.322 363.709 407.116 363.61C407.91 363.511 408.554 363.114 409.051 362.419C409.547 361.725 409.795 360.435 409.795 358.55C409.795 357.607 409.795 356.664 409.795 355.722C410.241 355.97 410.688 356.218 411.134 356.466C412.027 356.962 413.069 357.26 414.26 357.359C415.451 357.458 416.344 357.408 416.939 357.21C417.534 357.012 418.179 356.565 418.874 355.87C419.568 355.176 420.065 354.481 420.362 353.787C420.66 353.092 420.858 352.001 420.958 350.512C421.057 349.024 420.908 347.536 420.511 346.047C420.114 344.559 419.37 342.922 418.279 341.136C417.187 339.35 416.096 338.308 415.004 338.01C413.913 337.712 413.168 337.911 412.772 338.605Z" fill="#000000" fill-rule="nonzero" opacity="1" stroke="#000000" stroke-linecap="butt" stroke-linejoin="round" stroke-width="0.1"/>
</g>
</svg>
