<?xml version="1.0" encoding="UTF-8" standalone="no"?>
<!DOCTYPE svg PUBLIC "-//W3C//DTD SVG 1.1//EN" "http://www.w3.org/Graphics/SVG/1.1/DTD/svg11.dtd">
<!-- Created with Vectornator (http://vectornator.io/) -->
<svg height="100%" stroke-miterlimit="10"
    style="fill-rule:nonzero;clip-rule:evenodd;stroke-linecap:round;stroke-linejoin:round;" version="1.1"
    viewBox="0 0 840 880" width="100%" xml:space="preserve" xmlns="http://www.w3.org/2000/svg"
    xmlns:vectornator="http://vectornator.io" xmlns:xlink="http://www.w3.org/1999/xlink">
    <defs />
    <g id="Layer-1" vectornator:layerName="Layer 1">
        <path
            d="M372 43.5C359.333 45.1667 346.333 47.5 333 50.5C319.667 53.5 305.833 57.5 291.5 62.5C277.167 67.5 262.667 73.5 248 80.5C233.333 87.5 220.333 94.5 209 101.5C197.667 108.5 186.5 116.333 175.5 125C164.5 133.667 153.667 143.167 143 153.5C132.333 163.833 123.667 172.833 117 180.5C110.333 188.167 101 201 89 219C77 237 67.3333 253.667 60 269C52.6667 284.333 46.6667 298.833 42 312.5C37.3333 326.167 32.8333 344 28.5 366C24.1667 388 22 413.167 22 441.5C22 469.833 23.3333 491.5 26 506.5C28.6667 521.5 31.5 534.333 34.5 545C37.5 555.667 41.1667 567 45.5 579C49.8333 591 55 603.167 61 615.5C67 627.833 73.8333 640.167 81.5 652.5C89.1667 664.833 97.1667 676.333 105.5 687C113.833 697.667 123.333 708.5 134 719.5C144.667 730.5 153.333 738.833 160 744.5C166.667 750.167 174 756 182 762C190 768 200.667 775 214 783C227.333 791 238.833 797.333 248.5 802C258.167 806.667 271 811.833 287 817.5C303 823.167 317.5 827.5 330.5 830.5C343.5 833.5 356.167 835.833 368.5 837.5C380.833 839.167 398.5 840 421.5 840C444.5 840 461.333 839.333 472 838C482.667 836.667 494.667 834.5 508 831.5C521.333 828.5 536.167 824.167 552.5 818.5C568.833 812.833 583.167 807 595.5 801C607.833 795 617.667 789.833 625 785.5C632.333 781.167 643 773.833 657 763.5C671 753.167 686.333 739.667 703 723C719.667 706.333 731.833 693 739.5 683C747.167 673 755 661.5 763 648.5C771 635.5 777.833 623 783.5 611C789.167 599 794.333 586.5 799 573.5C803.667 560.5 807.667 547 811 533C814.333 519 816.833 505 818.5 491C820.167 477 820.833 458.167 820.5 434.5C820.167 410.833 817.833 387.833 813.5 365.5C809.167 343.167 804.667 325.167 800 311.5C795.333 297.833 790.833 286.167 786.5 276.5C782.167 266.833 777 256.667 771 246C765 235.333 757.667 223.833 749 211.5C740.333 199.167 733 189.5 727 182.5C721 175.5 710.833 165.167 696.5 151.5C682.167 137.833 670.833 127.833 662.5 121.5C654.167 115.167 644 108.333 632 101C620 93.6667 607.833 87 595.5 81C583.167 75 571.167 69.8333 559.5 65.5C547.833 61.1667 536.667 57.5 526 54.5C515.333 51.5 503 48.8333 489 46.5C475 44.1667 455.167 42.6667 429.5 42C403.833 41.3333 384.667 41.8333 372 43.5ZM430 93C452.667 93.6667 468.333 94.6667 477 96C485.667 97.3333 495.833 99.5 507.5 102.5C519.167 105.5 529.667 108.667 539 112C548.333 115.333 558.667 119.667 570 125C581.333 130.333 592 136 602 142C612 148 620.833 153.833 628.5 159.5C636.167 165.167 648 175.833 664 191.5C680 207.167 691 218.833 697 226.5C703 234.167 709.667 243.833 717 255.5C724.333 267.167 730.167 277.333 734.5 286C738.833 294.667 743.333 305.167 748 317.5C752.667 329.833 756.5 341.667 759.5 353C762.5 364.333 764.833 375.167 766.5 385.5C768.167 395.833 769 413.5 769 438.5C769 463.5 767.333 485.333 764 504C760.667 522.667 756.667 538.833 752 552.5C747.333 566.167 742.167 579 736.5 591C730.833 603 722.833 616.833 712.5 632.5C702.167 648.167 694 659.5 688 666.5C682 673.5 674.333 681.5 665 690.5C655.667 699.5 646.167 707.833 636.5 715.5C626.833 723.167 617.833 729.667 609.5 735C601.167 740.333 587.333 747.5 568 756.5C548.667 765.5 533.5 771.667 522.5 775C511.5 778.333 499 781.333 485 784C471 786.667 451.5 788.167 426.5 788.5C401.5 788.833 379.5 787.333 360.5 784C341.5 780.667 325.5 776.833 312.5 772.5C299.5 768.167 286.5 763 273.5 757C260.5 751 248.333 744.5 237 737.5C225.667 730.5 216.5 724.333 209.5 719C202.5 713.667 191 703 175 687C159 671 146.333 656.5 137 643.5C127.667 630.5 120.833 620.167 116.5 612.5C112.167 604.833 106.167 591.667 98.5 573C90.8333 554.333 85.6667 540 83 530C80.3333 520 78 508.833 76 496.5C74 484.167 72.8333 470.167 72.5 454.5C72.1667 438.833 72.3333 424.833 73 412.5C73.6667 400.167 76.1667 384.5 80.5 365.5C84.8333 346.5 88.6667 332.333 92 323C95.3333 313.667 99.8333 303 105.5 291C111.167 279 119.333 265 130 249C140.667 233 149.333 221.167 156 213.5C162.667 205.833 171.5 196.833 182.5 186.5C193.5 176.167 204.667 166.833 216 158.5C227.333 150.167 236.667 143.833 244 139.5C251.333 135.167 259.5 130.833 268.5 126.5C277.5 122.167 287.833 117.833 299.5 113.5C311.167 109.167 322.833 105.5 334.5 102.5C346.167 99.5 359.333 97 374 95C388.667 93 407.333 92.3333 430 93ZM396 206.5C388.667 208.167 382.667 210 378 212C373.333 214 367.167 217.5 359.5 222.5C351.833 227.5 345.667 232.333 341 237C336.333 241.667 332.333 246.333 329 251C325.667 255.667 322.167 262 318.5 270C314.833 278 312.333 284.833 311 290.5C309.667 296.167 309 304.667 309 316C309 327.333 310.333 337.667 313 347C315.667 356.333 319.5 365.333 324.5 374C329.5 382.667 335.667 390.5 343 397.5C350.333 404.5 355.667 408.833 359 410.5C362.333 412.167 357.833 450 345.5 524C333.167 598 326.333 641.333 325 654C323.667 666.667 324.167 673.833 326.5 675.5C328.833 677.167 360.167 678 420.5 678C480.833 678 512.333 677.167 515 675.5C517.667 673.833 519 671 519 667C519 663 512.167 619.833 498.5 537.5C484.833 455.167 480.5 412.333 485.5 409C490.5 405.667 495.833 401.167 501.5 395.5C507.167 389.833 512.333 383.167 517 375.5C521.667 367.833 525.5 359 528.5 349C531.5 339 533.167 329.667 533.5 321C533.833 312.333 533.667 305.667 533 301C532.333 296.333 531.167 291 529.5 285C527.833 279 525.667 273.167 523 267.5C520.333 261.833 516 255.167 510 247.5C504 239.833 498.333 233.833 493 229.5C487.667 225.167 482 221.333 476 218C470 214.667 463.333 211.833 456 209.5C448.667 207.167 438.667 205.667 426 205C413.333 204.333 403.333 204.833 396 206.5Z"
            fill="#ffffff" fill-rule="nonzero" opacity="1" stroke="1" vectornator:layerName="Curve 1" />
    </g>
</svg>