<?xml version="1.0" encoding="UTF-8" standalone="no"?>
<svg
   version="1.0"
   width="500.00003pt"
   height="500.00003pt"
   viewBox="0 0 500.00003 500.00003"
   preserveAspectRatio="xMidYMid"
   id="svg48"
   xmlns="http://www.w3.org/2000/svg"
   xmlns:svg="http://www.w3.org/2000/svg">
  <defs
     id="defs52" />
  <g
     transform="matrix(0.1,0,0,-0.1,0,500)"
     fill="#000000"
     stroke="none"
     id="g46"
     style="fill:#e30000;fill-opacity:1">
    <path
       d="m 2504,2745 c -4,-9 -2,-21 4,-27 15,-15 44,-1 40,19 -4,23 -36,29 -44,8 z"
       id="path2"
       style="fill:#e30000;fill-opacity:1" />
    <path
       d="m 1991,2708 c -5,-13 -14,-49 -21,-81 -8,-32 -16,-60 -20,-62 -4,-2 -22,31 -40,73 -18,42 -34,78 -36,80 -1,2 -14,0 -28,-4 l -27,-6 6,-92 c 8,-110 12,-126 31,-126 13,0 15,13 12,75 -2,41 -2,75 -1,75 1,0 16,-31 34,-70 41,-90 61,-93 84,-12 26,93 34,104 34,51 1,-77 10,-107 31,-102 18,5 18,0 4,156 -5,63 -7,67 -30,67 -16,0 -27,-8 -33,-22 z"
       id="path4"
       style="fill:#e30000;fill-opacity:1" />
    <path
       d="m 3120,2710 c 0,-13 7,-20 20,-20 13,0 20,7 20,20 0,13 -7,20 -20,20 -13,0 -20,-7 -20,-20 z"
       id="path6"
       style="fill:#e30000;fill-opacity:1" />
    <path
       d="m 3350,2683 c -1,-10 -7,-62 -14,-116 -12,-97 -12,-98 8,-95 17,2 22,13 28,52 8,59 30,86 56,70 14,-9 16,-23 14,-71 -3,-47 0,-61 12,-66 20,-8 22,-3 30,72 6,52 4,66 -10,82 -19,21 -46,24 -75,9 -17,-10 -18,-8 -12,35 5,41 4,45 -16,45 -13,0 -21,-6 -21,-17 z"
       id="path8"
       style="fill:#e30000;fill-opacity:1" />
    <path
       d="m 2300,2682 c 0,-4 13,-41 29,-82 26,-68 31,-75 56,-75 26,0 30,6 56,83 26,77 26,82 9,82 -14,0 -25,-16 -42,-62 l -22,-62 -22,50 c -13,27 -23,55 -23,62 -1,13 -41,17 -41,4 z"
       id="path10"
       style="fill:#e30000;fill-opacity:1" />
    <path
       d="m 2507,2683 c -4,-3 -7,-42 -7,-85 0,-71 2,-78 20,-78 18,0 20,7 20,85 0,64 -3,85 -13,85 -8,0 -17,-3 -20,-7 z"
       id="path12"
       style="fill:#e30000;fill-opacity:1" />
    <path
       d="m 2615,2665 c -18,-17 -25,-35 -25,-63 0,-56 26,-84 77,-86 48,-1 79,19 62,41 -9,10 -15,11 -23,3 -21,-21 -76,-5 -76,22 0,4 25,8 55,8 54,0 55,0 55,30 0,65 -78,93 -125,45 z m 83,-27 c 3,-15 -4,-18 -32,-18 -38,0 -44,8 -24,28 17,17 52,11 56,-10 z"
       id="path14"
       style="fill:#e30000;fill-opacity:1" />
    <path
       d="m 3220,2675 c 0,-8 -7,-15 -15,-15 -8,0 -15,-9 -15,-20 0,-11 5,-20 11,-20 8,0 9,-17 5,-54 -6,-42 -4,-57 9,-70 21,-21 75,-22 75,-1 0,8 -9,15 -19,15 -24,0 -29,14 -23,68 4,36 7,42 28,42 15,0 24,6 24,15 0,8 -9,15 -20,15 -13,0 -20,7 -20,20 0,13 -7,20 -20,20 -11,0 -20,-7 -20,-15 z"
       id="path16"
       style="fill:#e30000;fill-opacity:1" />
    <path
       d="m 2130,2653 c -42,-53 -7,-143 56,-143 60,0 103,51 89,107 -11,46 -33,63 -81,63 -35,0 -47,-5 -64,-27 z m 102,-38 c 5,-21 3,-36 -8,-53 -19,-29 -44,-25 -63,10 -12,21 -13,31 -3,53 17,38 62,32 74,-10 z"
       id="path18"
       style="fill:#e30000;fill-opacity:1" />
    <path
       d="m 2850,2664 c 0,-8 5,-46 11,-85 11,-62 14,-69 35,-69 19,0 26,9 40,55 10,30 19,53 22,51 2,-3 9,-28 16,-58 9,-42 16,-54 33,-56 19,-3 24,6 43,70 28,94 28,91 9,95 -13,3 -20,-8 -29,-47 -15,-63 -26,-70 -34,-22 -11,62 -17,72 -36,72 -14,0 -23,-14 -37,-56 -19,-61 -23,-57 -38,29 -6,36 -35,54 -35,21 z"
       id="path20"
       style="fill:#e30000;fill-opacity:1" />
    <path
       d="m 1284,2604 c 15,-136 28,-185 45,-182 13,3 15,14 13,70 -4,61 -2,67 19,73 30,10 45,-11 53,-75 5,-41 10,-50 26,-50 23,0 23,-4 9,77 -13,74 -38,100 -80,84 -40,-15 -44,-13 -49,21 -3,22 -11,34 -24,36 -18,4 -18,-1 -12,-54 z"
       id="path22"
       style="fill:#e30000;fill-opacity:1" />
    <path
       d="m 3116,2648 c -3,-7 -7,-46 -10,-85 -4,-67 -3,-73 15,-73 10,0 19,6 20,13 0,6 4,45 8,85 6,66 5,72 -11,72 -10,0 -20,-6 -22,-12 z"
       id="path24"
       style="fill:#e30000;fill-opacity:1" />
    <path
       d="m 3683,2641 c -83,-21 -108,-161 -37,-208 13,-8 43,-16 65,-17 32,0 45,5 61,23 17,22 17,26 3,33 -10,6 -20,4 -31,-6 -40,-41 -94,-5 -94,62 0,73 58,106 106,61 23,-21 44,-19 44,5 0,30 -72,58 -117,47 z"
       id="path26"
       style="fill:#e30000;fill-opacity:1" />
    <path
       d="m 1588,2624 c -46,-25 -33,-52 14,-28 28,15 48,12 48,-6 0,-5 -17,-18 -39,-29 -46,-24 -57,-46 -36,-77 18,-27 56,-32 75,-9 9,11 17,12 30,5 33,-18 68,9 37,27 -8,4 -17,31 -21,58 -9,72 -47,93 -108,59 z m 72,-93 c 0,-28 -26,-47 -44,-31 -24,19 -7,42 37,49 4,0 7,-7 7,-18 z"
       id="path28"
       style="fill:#e30000;fill-opacity:1" />
    <path
       d="m 993,2573 c -7,-3 -13,-13 -13,-24 0,-10 -4,-19 -10,-19 -5,0 -10,-7 -10,-15 0,-8 6,-15 14,-15 10,0 17,-16 22,-46 8,-59 36,-88 72,-79 33,8 36,11 29,29 -4,9 -14,12 -25,9 -24,-6 -28,0 -36,53 -6,36 -5,42 13,47 12,3 21,12 21,21 0,12 -6,15 -23,11 -17,-5 -26,-1 -33,13 -5,11 -15,17 -21,15 z"
       id="path30"
       style="fill:#e30000;fill-opacity:1" />
    <path
       d="m 1130,2543 c -42,-54 -1,-143 67,-143 32,0 73,28 73,49 0,21 -23,22 -41,2 -23,-24 -24,-24 -49,-11 -23,12 -34,55 -20,81 9,16 19,20 48,17 28,-2 37,1 37,12 0,11 -13,16 -46,18 -41,3 -49,0 -69,-25 z"
       id="path32"
       style="fill:#e30000;fill-opacity:1" />
    <path
       d="m 3848,2550 c -25,-15 -12,-43 13,-29 23,12 59,3 59,-15 0,-8 -18,-15 -46,-19 -49,-5 -64,-18 -64,-53 0,-31 25,-47 62,-42 20,3 38,0 46,-8 7,-8 20,-14 28,-14 15,0 19,25 6,34 -5,3 -4,30 1,61 9,46 8,58 -4,71 -20,19 -79,27 -101,14 z m 62,-105 c 0,-19 -32,-36 -49,-25 -8,4 -11,15 -8,24 8,20 57,22 57,1 z"
       id="path34"
       style="fill:#e30000;fill-opacity:1" />
    <path
       d="m 710,2448 v -83 l -38,65 c -26,44 -45,66 -60,68 -21,3 -22,0 -22,-80 v -83 l -37,68 c -25,44 -43,67 -55,67 -10,0 -18,-2 -18,-5 0,-3 22,-50 49,-104 46,-91 52,-98 75,-94 25,5 26,8 26,82 v 76 l 37,-62 c 29,-48 43,-63 60,-63 23,0 23,2 23,115 0,108 -1,115 -20,115 -18,0 -20,-7 -20,-82 z"
       id="path36"
       style="fill:#e30000;fill-opacity:1" />
    <path
       d="m 4024,2512 c -6,-4 -14,-17 -18,-29 -7,-23 21,-57 56,-69 11,-3 17,-11 15,-17 -6,-20 -37,-20 -58,-1 -16,14 -22,15 -32,5 -18,-18 26,-51 68,-51 72,0 86,56 25,95 -40,25 -45,45 -11,45 9,0 22,-5 28,-11 11,-11 33,-5 33,10 0,21 -82,39 -106,23 z"
       id="path38"
       style="fill:#e30000;fill-opacity:1" />
    <path
       d="m 819,2491 c -19,-16 -21,-22 -12,-32 10,-10 16,-9 31,4 10,9 26,17 35,17 29,0 19,-26 -20,-51 -42,-27 -52,-58 -28,-83 22,-21 51,-20 74,3 13,13 22,16 30,8 7,-7 18,-7 31,-1 21,9 21,9 2,32 -11,12 -23,39 -27,60 -4,20 -11,43 -17,50 -16,18 -73,14 -99,-7 z m 91,-93 c 0,-15 -31,-37 -45,-32 -22,9 -18,29 8,47 21,14 36,8 37,-15 z"
       id="path40"
       style="fill:#e30000;fill-opacity:1" />
    <path
       d="m 4171,2454 c -31,-39 -28,-97 5,-123 31,-24 86,-28 104,-6 14,16 11,18 -39,19 -20,1 -38,8 -44,18 -17,26 -2,32 50,21 52,-12 63,-7 63,35 0,61 -99,87 -139,36 z m 97,-26 c 3,-13 -3,-18 -20,-18 -31,0 -52,15 -43,29 11,18 59,9 63,-11 z"
       id="path42"
       style="fill:#e30000;fill-opacity:1" />
    <path
       d="m 4352,2353 3,-98 -32,-3 c -52,-5 -38,-42 16,-42 9,0 31,15 47,33 47,50 126,167 115,169 -6,0 -15,1 -21,2 -5,1 -26,-21 -45,-48 -32,-45 -34,-47 -39,-25 -3,13 -7,42 -8,64 -2,29 -8,41 -21,43 -17,3 -18,-4 -15,-95 z"
       id="path44"
       style="fill:#e30000;fill-opacity:1" />
  </g>
</svg>
