<svg width="680" height="204" viewBox="0 0 680 204" fill="none" xmlns="http://www.w3.org/2000/svg">
<path fill-rule="evenodd" clip-rule="evenodd" d="M0.5 30.7784V167.278C10 213.778 86 208.778 90.5 167.278V30.7784C78.5 -12.7214 10 -7.72143 0.5 30.7784ZM61 162V40C56.5 25 34.5 26.5 31.5 40V162C34.5 175.5 55.5 177 61 162Z" fill="#FF0000"/>
<path d="M417 3H336.5V198H368.5V113H408V83.5H368.5V30H417V3Z" fill="#FF0000"/>
<path d="M464.5 3H432.5V198H514.5V170H464.5V3Z" fill="#FF0000"/>
<path d="M529 198V3H560V198H529Z" fill="#FF0000"/>
<path d="M608.5 3H575L608.5 97.5153L575 198H604.5L628 133L648.5 198H680L648.5 97.5153L680 3H648.5L628 60.5L608.5 3Z" fill="#FF0000"/>
<path fill-rule="evenodd" clip-rule="evenodd" d="M225 3V198H256.337V115.423H274.244C285.919 121.923 286.494 126.872 284.689 136.316V198H321C314.337 186.954 316.523 176.61 316.523 156.712V120.398C312.458 107.665 308.649 103.414 299.114 100.997V97.5153C311.051 91.9113 313.419 86.708 315.528 72.5L314.528 30C314.528 10.5 297.407 3 279.5 3L225 3ZM256.337 86.5V30C275.232 29.2071 285.393 28.5031 284.689 53C284 77 285.5 81 279.5 86.5H256.337Z" fill="#FF0000"/>
<path d="M111.5 3.5H143V159C146 177 171 178 173 159V3.5H204V159C201.5 181 187.5 194 173 200.5C158.5 207 143 200.5 143 200.5C122.187 189.474 114.887 181.284 111.5 159V3.5Z" fill="#FF0000"/>
</svg>
