<svg width="681" height="205" viewBox="0 0 681 205" fill="none" xmlns="http://www.w3.org/2000/svg">
<path d="M225 199V4H279.5C297.407 4 314.528 11.5 314.528 31L315.528 73.5C313.419 87.708 311.051 92.9113 299.114 98.5153V101.997C308.649 104.414 312.458 108.665 316.523 121.398V157.712C316.523 177.61 314.337 187.954 321 199H284.689V137.316C286.494 127.872 285.919 122.923 274.244 116.423H256.337V199H225Z" stroke="black"/>
<path d="M417 4H336.5V199H368.5V114H408V84.5H368.5V31H417V4Z" stroke="black"/>
<path d="M464.5 4H432.5V199H514.5V171H464.5V4Z" stroke="black"/>
<path d="M529 199V4H560V199H529Z" stroke="black"/>
<path d="M608.5 4H575L608.5 98.5153L575 199H604.5L628 134L648.5 199H680L648.5 98.5153L680 4H648.5L628 61.5L608.5 4Z" stroke="black"/>
<path d="M31.5 160V42C31.5 25.5 60 26.5 60 42V160C56.5 180.5 31.5 176 31.5 160Z" stroke="black"/>
<path d="M143 4.5H111.5V160C114.887 182.284 122.187 190.474 143 201.5C143 201.5 158.5 208 173 201.5C187.5 195 201.5 182 204 160V4.5H173V160C171 179 146 178 143 160V4.5Z" stroke="black"/>
<path d="M0.5 168.278V31.7784C10 -6.72143 78.5 -11.7214 90.5 31.7784V168.278C86 209.778 10 214.778 0.5 168.278Z" stroke="black"/>
<path d="M256.5 85.5V33C285.5 33.0001 285.5 40.4999 285.5 58.5C283.692 73.3508 284.639 84.6106 273.5 85.5H256.5Z" stroke="black"/>
</svg>
